<?xml version="1.0" encoding="UTF-8"?>
<svg id="Layer_2" data-name="Layer 2" xmlns="http://www.w3.org/2000/svg" viewBox="0 0 3680 918">
  <defs>
    <style>
      .cls-1 {
        fill: #e8af7c;
      }
    </style>
  </defs>
  <g id="Layer_2-2" data-name="Layer 2">
    <g>
      <path class="cls-1" d="m1912.87,642.67c.28.83.1,1.75-.47,2.41l-27.49,32.15h246.23l235.86-266.27-282,16-173.96,214.06c.85.19,1.55.81,1.83,1.65Z"/>
      <path class="cls-1" d="m2623,891.96v-172l-240-269-231.35,268.97,4,171.5,467.35.53Zm-182.89-151.3c0-1.38,1.12-2.5,2.5-2.5h121.84c1.38,0,2.5,1.12,2.5,2.5v102.68c0,1.39-1.12,2.5-2.5,2.5h-121.84c-1.38,0-2.5-1.11-2.5-2.5v-102.68Zm-84.94-182.83c0-1.39,1.12-2.5,2.5-2.5h64.35c1.38,0,2.5,1.11,2.5,2.5v79.4c0,1.38-1.12,2.5-2.5,2.5h-64.35c-1.38,0-2.5-1.12-2.5-2.5v-79.4Zm-146.06,182.83c0-1.38,1.12-2.5,2.5-2.5h121.84c1.38,0,2.5,1.12,2.5,2.5v102.68c0,1.39-1.12,2.5-2.5,2.5h-121.84c-1.38,0-2.5-1.11-2.5-2.5v-102.68Z"/>
      <polygon class="cls-1" points="3567 652.96 3385 411.96 3143 391.96 3349 636.96 3567 652.96"/>
      <path class="cls-1" d="m1758.77,711.65c.49-.47,1.14-.72,1.83-.69l16.71.67-11.27-8.14c-.58-.42-.95-1.05-1.02-1.75-.08-.7.14-1.4.6-1.93.02-.02.3-.34.84-.95l-246.46-201.9-253.28,217.5h491.28v-1.01c0-.68.29-1.33.78-1.8Z"/>
      <path class="cls-1" d="m988,360.96l-24.2,25.3c-1.41,2.63-3.52,5.52-6.42,8.84l-4.42,5.08c-2.64,3.19-4.91,5.76-4.94,5.78l-114.75,120.37,170.19,2.53,152.54.1-168-168Z"/>
      <polygon class="cls-1" points="347 900.96 725 894.96 725 814.96 347 820.96 347 900.96"/>
      <path class="cls-1" d="m494.74,188.02c-4.13,3.77-10.11,4.59-15.05,7.21-20.41,10.81-12.27,43.16-8.59,61.21,4.72,23.15,21.89,44.39,47.32,44.93,31.88.69,59-29.33,90.77-26.51,14.04,1.25,26.58,8.83,39.56,14.33,17.65,7.48,38.41,11.09,55.72,2.86,8.3-3.95,15.18-10.32,22.94-15.24,27.21-17.23,65.74-13.93,89.62,7.67,8.65,7.82,16.45,18.22,27.97,20,9.79,1.51,19.59-4.07,25.83-11.77,6.24-7.7,9.59-17.27,12.84-26.63,4.93-14.25,17.71-15.78,22.33-30.13,9-28-.43-33.15.26-43.91,1.78-27.62-16.17-53.71-39.57-68.49-5.52-3.48-11.45-6.55-15.86-11.37-8.26-9.05-9.51-22.22-12.97-33.97-6.57-22.27-28.84-43.41-50.82-35.94-8.08,2.75-14.82,9.01-23.21,10.59-12.6,2.38-24.27-6.24-35.01-13.24-10.74-7-25.35-12.66-35.7-5.1-6.77,4.95-9.31,14.15-15.94,19.3-10.83,8.42-26.27,2.55-39.96,1.73-23.09-1.38-46.03,15.06-52.13,37.37-3.24,11.85-3.14,26.43-13.3,33.35-13.07,8.9-30.38-2.89-46.18-2.15-13.96.66-26.42,12.87-27.36,26.81-.86,12.85,6,28.4-3.51,37.07Z"/>
      <path class="cls-1" d="m81.76,691.67c-3.4,11.72-3.67,24.85,1.98,35.67,7.12,13.66,21.22,20.46,36.68,24.21,14.53,3.52,23.96,17.62,21.92,32.43-5.53,40.11-8.76,107.09,75.11,104.69,39.09-1.12,31.66-74.01,12.84-108.29,8.87,4.33-76.28-73.43,134.92-224.6,38.1-27.27,93.46-87.22,62.2-135.83-8.73-13.58-19.86-26.39-34.71-32.74-26.88-11.49-61.95,4.55-70.83,32.4-3.75,11.76-5.08,27.01-16.6,31.45-11.78,4.53-23.1-6.44-33.77-13.18-17.74-11.21-42.04-11-59.58.53-17.54,11.52-27.39,33.74-24.14,54.47,2.21,14.13,9.55,29.9,1.27,41.56-5.65,7.96-16.56,10.17-26.31,9.72-9.75-.45-19.49-2.9-29.17-1.63-22.03,2.88-37.98,26.27-36.07,48.41,1.91,22.14,18.86,41.22,39.47,49.55-25.79,5.41-47.85,25.86-55.19,51.18Z"/>
      <path class="cls-1" d="m2712.65,317.32c-11.85,6.65-18.09,25.4-18.51,37.96-.56,16.59,6.7,33.03,18.4,44.79,5.48,5.51,12.03,10.26,15.65,17.15,3.35,6.37,3.78,13.82,4.29,21,1.44,20.1,4.18,40.55,13.02,58.66,8.84,18.11,24.73,33.75,44.47,37.81,19.74,4.06,42.73-6.17,49.24-25.24,5.19-15.22.34-34.29,11.24-46.12,6.78-7.36,17.92-9.48,24.6-16.92,10.41-11.58,25.7-27.93,30.36-42.79,6.95-22.17,31.58-9.65,38.41-57.14,9.2-64.01-22.41-48.8-21.68-75.35.26-9.24,3.96-18,5.84-27.04,5.24-25.08-25.76-55.84-48.49-67.68-22.73-11.83-55.27-1.99-64.48,21.92-5.64,14.64-4.39,34.45-18.24,41.82-10.41,5.54-23.57.1-34.83,3.59-15.42,4.77-21.14,23.82-20.84,39.96.13,6.95.9,14.07-1.04,20.75-4.85,16.66-16.22,6.6-27.44,12.9Z"/>
      <path d="m589.61,540.86h-108.15c-1.38,0-2.5,1.12-2.5,2.5v89.48c0,1.38,1.12,2.5,2.5,2.5h108.15c1.39,0,2.5-1.12,2.5-2.5v-89.48c0-1.38-1.11-2.5-2.5-2.5Zm-2.5,89.48h-103.15v-84.48h103.15v84.48Z"/>
      <path d="m474.61,793.67c1.38,0,2.5-1.12,2.5-2.5v-84.89c0-1.38-1.12-2.5-2.5-2.5h-117.74c-1.38,0-2.5,1.12-2.5,2.5v84.89c0,1.38,1.12,2.5,2.5,2.5h117.74Zm-115.24-84.89h112.74v79.89h-112.74v-79.89Z"/>
      <path d="m587.11,706.28v84.89c0,1.38,1.12,2.5,2.5,2.5h117.75c1.38,0,2.5-1.12,2.5-2.5v-84.89c0-1.38-1.12-2.5-2.5-2.5h-117.75c-1.38,0-2.5,1.12-2.5,2.5Zm5,2.5h112.75v79.89h-112.75v-79.89Z"/>
      <path d="m2357.67,639.73h64.35c1.38,0,2.5-1.12,2.5-2.5v-79.4c0-1.39-1.12-2.5-2.5-2.5h-64.35c-1.38,0-2.5,1.11-2.5,2.5v79.4c0,1.38,1.12,2.5,2.5,2.5Zm2.5-79.4h59.35v74.4h-59.35v-74.4Z"/>
      <path d="m2211.61,845.84h121.84c1.38,0,2.5-1.11,2.5-2.5v-102.68c0-1.38-1.12-2.5-2.5-2.5h-121.84c-1.38,0-2.5,1.12-2.5,2.5v102.68c0,1.39,1.12,2.5,2.5,2.5Zm2.5-102.68h116.84v97.68h-116.84v-97.68Z"/>
      <path d="m2442.61,845.84h121.84c1.38,0,2.5-1.11,2.5-2.5v-102.68c0-1.38-1.12-2.5-2.5-2.5h-121.84c-1.38,0-2.5,1.12-2.5,2.5v102.68c0,1.39,1.12,2.5,2.5,2.5Zm2.5-102.68h116.84v97.68h-116.84v-97.68Z"/>
      <path d="m2666.5,893.96h75c.66,0,1.3-.26,1.77-.73s.73-1.11.73-1.77l-.06-113.99c0-1.38-1.12-2.5-2.5-2.5h-75.3c-.66,0-1.3.27-1.77.74-.47.47-.73,1.11-.73,1.77l.36,113.99c0,1.38,1.12,2.49,2.5,2.49Zm72.44-113.99l.06,108.99h-70.01l-.34-108.99h70.29Z"/>
      <path d="m3083.9,484.99h29.69c1.38,0,2.5-1.12,2.5-2.5v-44.53c0-1.38-1.12-2.5-2.5-2.5h-29.69c-1.38,0-2.5,1.12-2.5,2.5v44.53c0,1.38,1.12,2.5,2.5,2.5Zm2.5-44.53h24.69v39.53h-24.69v-39.53Z"/>
      <path d="m3169.75,596.66v-86.77c0-1.38-1.12-2.5-2.5-2.5h-53.66c-1.38,0-2.5,1.12-2.5,2.5v86.77c0,1.38,1.12,2.5,2.5,2.5h53.66c1.38,0,2.5-1.12,2.5-2.5Zm-5-2.5h-48.66v-81.77h48.66v81.77Z"/>
      <path d="m3083.9,507.39h-53.66c-1.38,0-2.5,1.12-2.5,2.5v86.77c0,1.38,1.12,2.5,2.5,2.5h53.66c1.39,0,2.5-1.12,2.5-2.5v-86.77c0-1.38-1.11-2.5-2.5-2.5Zm-2.5,86.77h-48.66v-81.77h48.66v81.77Z"/>
      <path d="m3068.53,678.31h-76.67c-1.38,0-2.5,1.11-2.5,2.5v116.37c0,1.38,1.12,2.5,2.5,2.5h76.67c1.38,0,2.5-1.12,2.5-2.5v-116.37c0-1.39-1.12-2.5-2.5-2.5Zm-2.5,116.37h-71.67v-111.37h71.67v111.37Z"/>
      <path d="m3211.53,678.31h-76.67c-1.38,0-2.5,1.11-2.5,2.5v116.37c0,1.38,1.12,2.5,2.5,2.5h76.67c1.38,0,2.5-1.12,2.5-2.5v-116.37c0-1.39-1.12-2.5-2.5-2.5Zm-2.5,116.37h-71.67v-111.37h71.67v111.37Z"/>
      <path d="m3680,912.96h-93.98l1.98-216.48c.01-1.33-1.03-2.44-2.36-2.52l-18-1c-.69-.04-1.35.21-1.85.68-.5.46-.78,1.11-.79,1.8l-1.98,200.52h-225.85v-232.91l269.19,14.91c.97.05,1.87-.46,2.34-1.3.46-.85.39-1.89-.18-2.67l-204-281c-.42-.59-1.09-.96-1.81-1.02l-313-26c-.81-.07-1.61.26-2.13.89l-231,278c-.62.75-.75,1.78-.34,2.66.41.88,1.29,1.44,2.26,1.44h46.46l-3.92,255h-52.03c.1-26.4.99-250.75.99-254.5,0-3.06,3.18-57.28,4.92-86.62,3.22-2.24,13.37-9.8,28.39-25.66.76-.8.91-2.01.36-2.97-.55-.96-1.67-1.44-2.74-1.18l-28.49,6.7,26.29-47.14c2.85-5.61,1.8-11.85.95-16.87-.6-3.53-1.16-6.86.01-7.98.79-.76,3.42-1.74,12.29.16,1.68.37,4.14.67,5.98-.85,2.05-1.7,1.98-4.45,1.91-7.36-.1-3.77-.21-8.03,3.69-11.18,2.1-1.68,4.78-1.88,7.18-.52,1.93,1.09,3.83,3.43,3.38,6.7-.74,5.24-4.26,10.6-9.42,14.33-7.54,5.44-19.17,18.79-18.26,31.46.32,4.5,2.47,10.78,10.9,15.19,12.17,6.38,24.57,6.51,32.36.34,8.18-6.48,10.39-18.97,6.22-35.17-.29-1.14-.51-2.7.13-3.66.67-.99,2.25-1.4,3.46-1.56,7.68-1.07,19.17-12.18,23.38-26.41,2.48-8.37,4.07-23.74-9.32-39.45.46-.03.93-.08,1.4-.15,6.16-.89,12.6-5.11,16.82-11.02,10.26-14.39,11.38-25.52,3.87-38.39-2.54-4.36-6.03-7.01-9.41-9.57-3.67-2.78-6.83-5.19-8.51-9.48-.63-1.62-1.16-3.3-.8-4.62.44-1.62,2.22-2.89,4.1-4.23l.51-.37c17.84-12.82,26.9-38.37,22.53-63.58-3.43-19.8-13.68-39.12-32.27-60.8-1.46-1.71-2.97-3.47-3.18-5.3-.15-1.31.35-2.82.88-4.41l.17-.5c6.39-19.53,2.54-41.75-10.07-57.98-11.62-14.97-31.62-23.99-53.5-24.12-29.38-.15-36.24,16.32-40.34,26.18-.9,2.16-2.26,5.44-3.03,5.63-.01.01-.69.11-2.64-1.51-8.32-6.93-20.17-7.76-29.5-2.05-11.93,7.3-16.62,22.44-12.54,40.52,1,4.44-.07,9.6-2.54,12.28-1.31,1.41-2.84,1.96-4.66,1.7-7.13-1.04-8.15-3.74-9.56-7.47-1.25-3.32-2.81-7.45-9.04-9.44-16-5.12-29.45,2.54-35.18,11.83-5.83,9.45-4.31,20.57,3.98,29.04,1.19,1.22,2.57,2.94,2.4,4.27-.29,2.18-4.63,4.74-9.23,7.45-12.36,7.28-32.73,19.29-24.99,52.69-4.44-.3-9.26.97-14.19,3.78-9.9,5.65-18.73,16.91-20.99,26.76-3.36,14.68-.97,27.5,6.72,36.73-7.09,1.61-12.79,7.8-15.11,14.22-2.93,8.11-5.2,24.67-3.63,33.07,4.12,21.96,16.27,38.03,36.13,47.8-4.77,14.77-3.48,31.29,3.71,46.8,7.16,15.45,19.36,28.54,34.36,36.88,5.49,3.06,5.2,4.8,4.23,10.59-.5,2.96-1.12,6.64-.98,11.38,0,.08.01.17.02.26.04.28,4.18,28.33,36.99,28.33,16.14,0,21.57-5.12,26.43-24.9.9-3.67,2.25-5.92,3.7-6.18,2.95-.49,8.17,5.03,10.99,9.15,1.3,6.05,4.42,20.64,4.38,27.42-.14,25.11-1.71,131.26-1.96,148.59l-28.12.91-144.98-54.62-262.59-287.56c-.52-.56-1.26-.85-2.02-.8l-303.69,20.1c-.68.04-1.31.36-1.75.89l-184.87,220.88-11.66-2.56c-17.49-3.57-27.61-10.3-29.26-19.44-.76-4.21.47-8.63,3.35-12.14,72.04-87.6,161.29-203.21,177.44-256.52,20.73-68.41,11.93-116.9-27.72-152.58-41.19-37.07-104.61-33.92-134.9-23.22-18.89,6.67-35.51,21.84-46.8,42.72-6.02,11.13-12.9,27.95-17.01,45.12-23.99-27.63-61.19-54.22-91.43-62.06-27.79-7.2-58.25-4.65-85.79,7.18-28.15,12.08-50.17,32.7-62.01,58.06-17.63,37.78-14.44,87.1,8.54,131.92,20.6,40.17,53.6,73.39,85.64,103.98,24.62,23.5,77.66,65.16,131.41,99.31,8.76,5.56,13.99,15.07,13.99,25.42,0,20.17-7.24,39.68-20.38,54.96-3.32,3.86-6.3,7.3-8.87,10.26l-256.46-214.71c-.93-.78-2.29-.77-3.22.02l-296.83,252.33c-.8.68-1.09,1.78-.73,2.77.37.98,1.3,1.63,2.35,1.63h41.76l-.42,168.66-406.42-1.12,2.45-133.27,75.93.39-1.48,121.65c-.01.67.26,1.32.73,1.79.47.48,1.11.74,1.77.74h.01l33.51-.17c1.37-.01,2.47-1.11,2.49-2.47l1.97-157.47,13.98.31-2.73,122.07c-.02.68.24,1.33.71,1.81s1.11.75,1.79.75h59.54c1.37,0,2.49-1.11,2.5-2.48l.98-141.7h67.49c-.16,8.82-.72,39.17-1.25,69.52-.31,18.02-.61,36.05-.81,49.57-.1,6.76-.18,12.4-.22,16.35-.02,1.99-.03,3.55-.03,4.61,0,1.97,0,3.67,2.04,4.09.21.04.43.05.64.04h72.04c1.37,0,2.49-1.11,2.5-2.48l1.84-295.45,35.45.93c1.07.03,1.99-.59,2.38-1.56.4-.96.15-2.06-.61-2.77l-240-223c-.99-.92-2.53-.89-3.48.07l-34.04,34.37c-.05-.03-.09-.06-.14-.09-4.39-6.91-4.72-12.94-5.04-18.76-.01-.07-.01-.14-.01-.2,8.43-10.58,14.87-23.29,18.7-36.36,8.24-28.04,2.54-50.97-14.5-58.43-17.23-7.54-28.06-18.47-28.26-28.53-.16-7.86,6.22-15.16,18.45-21.12,11.63-5.66,16.53-24.98,14.04-34.74-7.26-28.44-22.23-28.62-32.13-28.74-3.75-.04-6.98-.08-8.43-1.65-1.17-1.27-1.63-3.9-1.37-7.82,1.55-22.63-8.94-24.28-19.09-25.87-11.19-1.76-23.88-3.75-27.6-34.78-2.89-24.18-11.93-41.02-26.84-50.05-23.24-14.07-54.75-5.52-71.47.83-5.83,2.21-14.14-1.72-23.77-6.28-18.41-8.72-43.62-20.65-69.49,5.21l-.42.42c-9.47,9.47-12.4,12.4-24.72,15.87-2.05-.14-4.1-.29-6.15-.44-20.12-1.48-40.91-3.02-53.81,8.37-7.73,6.81-11.86,17.42-12.63,32.42-.37,7.29-2.04,11.92-4.96,13.74-5.04,3.16-14.93-1.05-25.4-5.5-12.22-5.19-26.07-11.07-38.63-8.56-21.14,4.23-35.25,12.37-43.13,24.91-8.09,12.85-9.37,30.4-3.8,52.16,4.16,16.28-5.26,21.38-17.19,27.84-13.74,7.44-30.85,16.7-22.45,47.69.06.23.16.45.28.66l.59.96c6.68,10.85,10.44,18.42,2.24,24.38-.1.07-.2.15-.29.24-14.32,14.2-18,36.07-9.37,55.73,8.4,19.15,25.49,30.77,44.97,30.77.16,0,.33,0,.5,0,.05.13.11.27.17.41l4.03,9.66c3.32,7.93,9.87,14.1,17.99,16.94,7.62,2.65,15.99,2.13,23.16-1.42,1.68,7.88,4.51,16.39,8.5,25.53,2.57,5.88.07,9.48-2.48,11.46-4.09,3.2-10.63,3.94-13.7,1.56-12.49-9.64-20.68-5.63-26.66-2.69-5.54,2.71-8.88,4.35-14.95-2.93-2-2.41-4.54-6.35-7.55-11.72-11.53-20.62-33.22-33.85-56.6-34.52-24.19-.69-51.79,5.22-64.19,13.78-19.71,13.6-32.14,32.79-34.64,53.21-13.92-9.95-55.03-32.44-107.31,1.76-27.96,18.29-41.06,59.73-29.39,89.77-18.87-3.5-49.03,7.09-61.04,19.59-35.25,36.68-26.01,72.96-20.4,86.86,3.01,7.47,7.09,13.94,10.78,17.56-28.24,12.53-38.77,47.27-39.08,74.28-.18,15.27,5.36,32.46,15.19,47.16,8.92,13.34,20.22,23.03,32.31,27.85-17.78,10.86-27.48,39.38-25.49,62.24,2.69,30.97,17.13,58.36,34.36,69.28H0v5h120.9c.44.02.89.04,1.34.04s.94-.02,1.41-.04c1.35-.08,2.39-1.22,2.35-2.57-.04-1.35-1.15-2.43-2.5-2.43h-2.5c-20.25-1.25-40.85-33.4-44.01-69.72-1.99-22.9,9.02-53.12,28.01-59.89,1.04-.37,1.71-1.37,1.66-2.47-.05-1.09-.81-2.03-1.87-2.3-28.89-7.45-50.11-44.21-49.79-72.09.31-26.8,11.05-61.58,40.28-71.39,1.15-.39,1.85-1.54,1.68-2.73-.17-1.16-1.12-2.04-2.27-2.14-1.97-.63-10.09-9.56-14.39-25.34-4.03-14.78-6.53-44.01,22-73.7,11.97-12.46,44.92-23.29,60.96-16.88.96.38,2.07.13,2.77-.64.7-.77.86-1.89.39-2.82-14.01-27.66-1.64-70.58,25.45-88.3,55.34-36.21,97.24-5.73,105.08.75.73.6,1.73.74,2.6.36.87-.38,1.44-1.22,1.49-2.17.99-20.57,12.97-40.24,32.88-53.97,11.44-7.9,38.34-13.56,61.2-12.9,21.64.62,41.71,12.87,52.39,31.96,3.15,5.64,5.87,9.84,8.07,12.48,8.59,10.3,15.18,7.07,20.99,4.22,5.85-2.87,11.38-5.58,21.4,2.16,4.85,3.75,13.94,3.03,19.84-1.58,5.49-4.28,6.94-10.62,3.98-17.4-4.06-9.31-6.88-17.9-8.43-25.74,4.08-1.47,7.21-.87,10.16,1.84,1.29,16.29,9.59,23.05,16.4,25.85,12.38,5.09,27.26.49,34.98-6.42,2.44-2.18,4.17-4.54,5.14-6.99,5.31,4.53,14.59,6.21,26.5,4.54,12.93-1.82,26.58-7.45,29.77-14.84,2.91.97,7.6,2.53,10.3,3.43-4.58,23.58,2.47,32.59,7.18,35.89,5.72,4,13.59,3.75,20.55-.63,8.8-5.56,13.37-15.9,11.63-26.34-.09-.53.03-.68.08-.75.79-1.06,4.5-1.49,6.71-1.75,3.61-.42,6.73-.78,7.74-3.3.58-1.45.18-3.03-1.24-4.74-.2-.22-19.87-22.93-16.75-37.57.03-.15.06-.29.1-.43,11.4,7.44,16.61,22.4,16.66,22.56.05.15.12.29.19.42l10.8,19.22c29.21,53.24,23.05,94.62,22.77,96.36-.16,1.03.33,2.06,1.25,2.57l25,14c.75.42,1.65.43,2.41.02.75-.41,1.24-1.17,1.3-2.03l.2-2.84c.4-6.11,1.49-22.35,1.71-23.94,2.83-20.56,12.97-39.19,22.78-57.21,6.52-11.99,35.3-65.46,35.59-66,.25-.45.35-.97.28-1.49l-2.26-18.14c-.12-1-.84-1.83-1.82-2.1-.98-.27-2.02.08-2.64.88l-37.59,48.63-24.65-64.13c-.44-1.13-1.62-1.78-2.81-1.56-1.19.23-2.04,1.28-2.03,2.48.06,5.22-.07,10.66-.2,15.91-.41,17.69-.84,35.92,5.13,52.33-7.41-4.21-19.51-12.12-22.64-19.58-.86-2.04-.93-3.81-.24-5.43,2.85-6.64.86-14.42-5.19-20.31-7.26-7.07-21.1-11.81-38.16-3.94-3.53,1.63-6.25,3.79-8.13,6.46-7.58-3.18-15.9-3.02-24.74.49-33.5,13.28-37.54,6.15-43.13-3.72-3.79-6.7-8.52-15.03-22.36-18.39-15.9-3.85-54.71-4.69-73.19,17.33-8.62,10.26-11.66,23.79-9.13,40.42-.1.05-.2.11-.3.16-6.18,3.41-13.57,4.02-20.27,1.68-6.78-2.36-12.26-7.52-15.03-14.14l-1.88-4.5c-1.71-4.1-2.91-6.97-2.97-7.13l-.03-.06c-.42-.95-1.37-1.54-2.4-1.49-21.85.99-36.25-13.67-42.43-27.73-6.17-14.08-7.25-34.6,8.2-50.04,12.33-9.12,4.57-21.71-1.09-30.92l-.4-.65c-7.15-26.89,6.09-34.06,20.1-41.65,12.19-6.59,24.78-13.41,19.65-33.47-5.21-20.38-4.14-36.61,3.19-48.26,7.11-11.31,20.16-18.72,39.88-22.67,11.05-2.21,24.14,3.36,35.69,8.27,12.21,5.18,22.76,9.67,30.01,5.13,4.45-2.78,6.84-8.58,7.31-17.72.69-13.59,4.27-23.05,10.94-28.93,11.32-9.99,30.17-8.61,50.13-7.14,2.2.17,4.41.33,6.61.48.29,0,.57-.01.84-.09,13.94-3.87,17.58-7.51,27.33-17.26l.42-.42c23.37-23.38,44.86-13.2,63.81-4.23,10.66,5.05,19.87,9.4,27.69,6.44,15.86-6.03,45.67-14.2,67.1-1.23,13.53,8.19,21.76,23.79,24.47,46.37,4.17,34.78,20.13,37.29,31.79,39.12,10.04,1.57,16.11,2.53,14.88,20.59-.38,5.5.47,9.17,2.67,11.55,2.91,3.15,7.35,3.2,12.05,3.26,9.37.11,21.03.25,27.35,24.98,2,7.86-2.49,24.67-11.39,29-17.83,8.69-21.4,18.79-21.26,25.72.25,12.22,11.93,24.56,31.25,33.01,17.74,7.76,17.4,33.1,11.72,52.44-3.17,10.79-8.19,21.33-14.67,30.49-1.37-6.9-5.51-13.31-20.29-18.71-5.5-3.14-4.33-7.15-.15-16.11,3.77-8.08,8.46-18.14-2.23-25.43-7.69-5.32-19.02-4.88-28.87,1.12-9.42,5.73-14.57,14.73-13.44,23.48.02.12.04.23.07.34,1.42,5.25,5.72,6.14,8.86,6.79,3.08.64,4.73,1.09,5.48,3.51.02.05.03.09.05.14.83,2.2-.21,3.32-5.83,6.31-2.43,1.29-5.18,2.75-7.3,4.75-2.47,2.34-5.87,3.63-9.46,3.56-7.69-.08-18.21-.2-19.98,12.49-.04.23-.04.46-.01.68.38,2.76.92,5.46,1.44,8.07.82,4.04,1.93,9.58.99,10.82-.06.08-.26.12-.42.13-.19.02-.38.05-.56.11-.64-.16-2.04-.82-3.09-1.32-5.58-2.64-15.96-7.55-23.49,2.49-5.71,7.61-.78,14.44,2.16,18.51.5.7,1.13,1.56,1.51,2.2-.52.12-1.38.24-2.77.29-20.54.79-25.02,12.26-25.99,17.15-2.21,11.16,5.07,24.03,16.57,29.31,6.54,3,23.73,7.44,42.08-16,4.12-5.27,5.44-13.51,6.72-21.49,1.38-8.63,2.81-17.56,7.67-20.33,2.73-1.56,6.63-1.3,11.92.78.17.07.34.12.52.15,2.91.46,5.77.68,8.58.68,17.54,0,33.16-8.7,45.38-21.82.52,5.04,1.75,10.58,5.77,16.72.13.21.3.4.49.56l-160.88,162.4c-21.51-17.29-40.06-32.17-55.45-44.51-17.5-14.02-31.08-24.87-40.36-32.25-10.38-8.25-14.08-11.19-15.71-12.22l.03-.04-16.43-12.32c-.32-.24-.7-.4-1.1-.47l-116.37-19.17c-.78-.13-1.58.13-2.15.68l-303.94,297.09c-.72.71-.95,1.79-.57,2.72.38.95,1.29,1.56,2.3,1.57l70.08.57v163.96c0,1.38,1.12,2.5,2.5,2.5h12.17c1.38,0,2.5-1.12,2.5-2.5l.15-180.72c0-1.36-1.08-2.47-2.43-2.5l-48.76-1.22,263.34-251.94,299.09,270.41c.92.83,2.3.87,3.26.08l67.62-55.43,78.23,62.32-.17,7.65-16.5-.37c-.66,0-1.32.24-1.8.7-.48.47-.75,1.1-.76,1.77l-1.97,157.54-28.51.15,1.48-121.63c.01-.67-.25-1.31-.72-1.78-.46-.48-1.1-.75-1.77-.75l-80.91-.42h-.01c-1.37,0-2.48,1.1-2.5,2.46l-2.54,138.28c-.01.67.24,1.31.71,1.79s1.11.75,1.78.75l411.45,1.14c.64-.01,1.3-.26,1.77-.73s.74-1.1.74-1.76l.44-173.67c0-.66-.26-1.3-.73-1.77-.47-.47-1.11-.74-1.77-.74h-37.47l290.04-246.56,254.78,213.3c-3.33,3.83-5.67,6.51-6.83,7.83-.54.61-.82.93-.84.95-.46.53-.68,1.23-.6,1.93.07.7.44,1.33,1.02,1.75l11.27,8.14-16.71-.67c-.69-.03-1.34.22-1.83.69-.49.47-.77,1.12-.77,1.8v1.01s-1,184.99-1,184.99c0,.66.26,1.3.73,1.77s1.1.74,1.77.74h21c1.38,0,2.5-1.12,2.5-2.5v-170.5h36.5c1.05,0,1.99-.66,2.35-1.65.36-.98.06-2.09-.75-2.77l-40.7-34.08c2.56-2.95,5.52-6.38,8.82-10.21,13.92-16.18,21.59-36.86,21.59-58.22,0-12.07-6.1-23.16-16.31-29.64-46.44-29.51-102.6-71.94-130.64-98.71-33.04-31.54-64.38-63.13-84.64-102.64-22.28-43.46-25.44-91.13-8.45-127.52,23.18-49.68,85.56-77.14,142-62.52,20.39,5.29,46,20.28,68.51,40.11,8.68,7.65,16.39,15.55,22.83,23.29-2.93,14.83-3.46,29.45.75,40.43,2.86,7.5,9.95,9.02,15.33,7.26,5.76-1.88,10.51-7.75,8.44-15.35-2.81-10.34-9.69-22.01-19.11-33.67,3.71-17.41,10.7-35.3,17.35-47.59,10.69-19.79,26.34-34.13,44.06-40.38,29.21-10.32,90.31-13.41,129.9,22.22,38.03,34.23,46.38,81.07,26.28,147.42-15.92,52.51-104.78,167.54-176.52,254.78-3.82,4.65-5.43,10.56-4.41,16.21,1.43,7.89,8.34,18.37,33.14,23.45l9.08,1.99-44.97,53.74c-.63.74-.76,1.78-.35,2.66.41.88,1.29,1.44,2.26,1.44h14.36l-16.1,18.83c-.4.46-.61,1.05-.6,1.66l2.77,187c.02,1.36,1.13,2.46,2.5,2.46h260.9c.66,0,1.3-.27,1.77-.74.47-.48.73-1.12.73-1.79l-.24-17.94c-.02-1.37-1.14-2.47-2.5-2.47h-245.18v-163.41l254.61.02,4.64,183.89c.04,1.36,1.14,2.44,2.5,2.44h667c.67,0,1.32-.27,1.79-.75.47-.48.72-1.13.71-1.81l-2.94-131.44h22.71c.81.47,1.89.85,3.03.17.83-.5,1.33-1.5,1.23-2.46-.07-.69-.23-2.28-12.27-12.82-5.57-4.89-13.06-11-17.07-12.4l-152.41-53.09-253.99-278.48c-.49-.53-1.17-.84-1.89-.82-.72.01-1.39.33-1.86.88l-256.35,299.67-.48-19.16c-.04-1.36-1.15-2.44-2.5-2.44h-249.65l14.35-16.78,27.49-32.15c.57-.66.75-1.58.47-2.41-.28-.84-.98-1.46-1.83-1.65,0,0,0,0,0,0l-13.51-2.97,182.51-218.06,301.42-19.96,262.19,287.12c.27.29.6.51.97.65l146,55c.31.12.64.17.96.16l31-1c1.34-.04,2.4-1.13,2.42-2.46.02-1.24,1.84-123.77,2-151.03.04-7.5-3.21-22.54-4.59-28.96-.07-.3-.19-.59-.36-.85-1.43-2.18-8.96-12.96-16.27-11.7-3.66.63-6.25,3.96-7.71,9.9-4.75,19.37-9.42,21.1-21.57,21.1-27.63,0-31.7-21.87-32.02-23.88-.11-4.18.44-7.41.92-10.26,1.03-6.16,1.85-11.02-6.73-15.79-26.28-14.61-46.58-48.43-35.06-79.74.45-1.23-.12-2.6-1.31-3.14-19.51-8.95-31.41-24.14-35.34-45.15-1.4-7.45.71-22.97,3.41-30.45,2.31-6.38,8.84-12.31,15.77-11.18,1.1.18,2.19-.39,2.67-1.41.47-1.02.21-2.22-.65-2.95-12.7-10.88-11.23-27.22-9.22-35.99,1.97-8.62,9.79-18.52,18.59-23.54,3.67-2.09,9.14-4.23,14.35-2.57.87.28,1.84.06,2.5-.59.66-.64.92-1.59.67-2.47-9.23-32.63,8.66-43.18,21.72-50.87,6.16-3.64,11.03-6.51,11.64-11.1.36-2.71-.88-5.46-3.78-8.43-6.7-6.84-7.93-15.41-3.3-22.92,4.74-7.68,15.97-13.99,29.41-9.69,3.92,1.26,4.74,3.44,5.88,6.45,1.55,4.09,3.47,9.18,13.52,10.64,3.43.5,6.64-.65,9.05-3.25,3.56-3.85,5.11-10.75,3.75-16.77-3.59-15.89.25-29.03,10.27-35.15,7.5-4.59,17.02-3.94,23.69,1.62,1.69,1.41,4.27,3.21,7.04,2.53,3.22-.79,4.64-4.23,6.45-8.58,3.83-9.2,9.59-23.09,35.25-23.09h.44c20.36.13,38.89,8.42,49.58,22.18,11.6,14.94,15.15,35.39,9.26,53.36l-.16.49c-.64,1.94-1.37,4.14-1.1,6.55.39,3.35,2.59,5.92,4.36,7.98,17.97,20.97,27.86,39.53,31.13,58.4,4.05,23.37-4.2,46.95-20.52,58.67l-.49.36c-2.28,1.62-5.11,3.64-6.02,6.99-.74,2.72.02,5.33.96,7.74,2.19,5.61,6.24,8.68,10.15,11.65,3.12,2.37,6.07,4.61,8.11,8.11,6.52,11.18,5.54,20.11-3.63,32.97-3.39,4.76-8.67,8.28-13.46,8.98-2.94.42-5.53-.22-7.68-1.9-1.07-.84-2.61-.67-3.47.38-.86,1.04-.73,2.59.29,3.48,17.69,15.32,17.76,30.84,14.71,41.16-3.81,12.86-13.96,22.13-19.28,22.87-3.23.45-5.56,1.71-6.92,3.74-1.34,2-1.62,4.59-.82,7.68,3.64,14.17,2.05,24.83-4.49,30.01-6.21,4.92-16.53,4.6-26.93-.84-5.2-2.73-7.89-6.37-8.23-11.12-.72-9.97,9.24-22.04,16.19-27.06,6.25-4.51,10.53-11.12,11.45-17.69.66-4.74-1.64-9.35-5.86-11.74-4.19-2.37-9.09-2-12.78.98-5.83,4.7-5.67,11.01-5.56,15.19.03,1.12.07,2.78-.13,3.36-.2.04-.71.06-1.72-.15-8.95-1.92-13.97-1.59-16.79,1.1-3.09,2.96-2.31,7.56-1.48,12.44.76,4.51,1.63,9.62-.43,13.68l-29,52c-.49.87-.41,1.94.18,2.73.6.79,1.61,1.15,2.57.92l25.65-6.03c-13.99,13.95-22.47,19.43-22.56,19.49-.68.43-1.11,1.16-1.16,1.96-.2,3.43-5,84.12-5,88.15s-.99,254.46-1,256.99c0,.67.26,1.3.73,1.77.47.48,1.1.74,1.77.74h57.01c1.36,0,2.47-1.1,2.5-2.46l3.99-260c.01-.67-.25-1.32-.72-1.79-.47-.48-1.11-.75-1.78-.75h-43.67l226.76-272.9,310.56,25.8,200.24,275.81-266.58-14.76c-.7-.04-1.36.21-1.86.68-.5.47-.78,1.13-.78,1.82v235.55h-50.13l3.92-246.79c4.33.17,12.95.27,20.16.28,5.13.01,9.54-.03,12.77-.1,6.15-.14,7.61-.18,8.06-2.39.37-1.83.69-3.42-35.45-46.25-18.78-22.26-45.07-52.82-78.12-90.82-56.27-64.7-113.44-129.44-114.01-130.09-.48-.54-1.22-.86-1.91-.84-.73.01-1.42.34-1.89.91l-207,251c-.61.75-.74,1.78-.33,2.66.41.87,1.29,1.43,2.26,1.43h34.76l-6.26,278.44c-.01.68.24,1.33.71,1.81.47.48,1.12.75,1.79.75l413.17-.24c1.38,0,2.5-1.12,2.5-2.5v-12.26h228.33c1.37,0,2.49-1.1,2.5-2.48l1.97-200.38,13.01.72-1.98,216.62c-.01.66.25,1.31.72,1.78.47.47,1.11.74,1.78.74h96.5v-5ZM690.55,319.73c14.75-6.81,26.5-2.92,32.58,2.99,4.52,4.4,6.09,10.06,4.07,14.76-2.97,6.94,1.5,14.94,13.32,23.76,4.49,3.36,9.11,6.12,12.19,7.84,6.38,3.57,7.18,3.82,8.56,2.67.89-.74,1.16-1.99.65-3.03-8.3-16.9-7.82-37.02-7.37-56.48.03-.97.05-1.95.07-2.92l21.55,56.04c.32.84,1.07,1.44,1.97,1.57s1.79-.23,2.34-.94l36.6-47.34,1.41,11.33c-3.43,6.37-29.09,54.04-35.2,65.27-9.56,17.56-20.39,37.46-23.35,58.92-.2,1.5-.95,12.39-1.67,23.18l-20.07-11.25c.97-8.77,3.46-48.55-23.57-97.82l-10.7-19.04c-.77-2.16-6.54-17.41-19.11-25.25,1.36-1.71,3.26-3.12,5.73-4.26Zm-169.82.84c16.98-20.22,53.27-19.3,68.18-15.68,11.74,2.85,15.53,9.53,19.19,15.99,7.33,12.94,14.31,19.79,49.32,5.9,7.46-2.95,14.4-3.17,20.67-.64-.19.57-.34,1.16-.47,1.76-3.37,15.85,14.14,37.5,17.36,41.31-.86.15-1.96.28-2.79.38-3.78.44-8.06.94-10.14,3.71-.66.88-1.38,2.39-1.02,4.57,1.72,10.27-3.97,17.89-9.36,21.29-5.23,3.29-10.98,3.59-15.01.76-6.54-4.57-8.25-16.57-4.72-32.93.27-1.25-.44-2.5-1.65-2.9l-12.66-4.22c-1.93-.65-2.81-.94-3.4-.94-.46,0-.74.18-1.19.5-.65.47-1.04,1.23-1.04,2.03,0,4.37-11.43,11.05-26.16,13.12-10.76,1.52-23.06.3-25.35-7.67-.38-1.32-1.76-2.09-3.09-1.71s-2.09,1.77-1.71,3.09c1.25,4.36-2.05,8.12-4.12,9.98-6.68,5.98-19.63,9.67-29.75,5.52-8.06-3.32-12.69-11.1-13.38-22.5-.04-.6-.29-1.16-.7-1.59-5.21-5.37-10.65-5.44-15.22-3.99-1.95-14.54.79-26.3,8.21-35.14Zm371.21,45.06c-6.67-2.58-11.89-2.7-15.97-.37-6.94,3.96-8.56,14.08-10.13,23.88-1.17,7.35-2.39,14.95-5.71,19.19-11.38,14.54-24.52,19.83-36.06,14.54-9.34-4.28-15.51-14.95-13.75-23.79,1.58-8,9.14-12.66,21.28-13.12,3.21-.12,6.34-.57,7.51-2.97,1.2-2.46-.54-4.88-2.39-7.44-3.35-4.64-5.47-8.26-2.22-12.59,2.21-2.95,4.69-4.04,7.41-4.04,3.05,0,6.39,1.39,9.94,3.07,2.79,1.32,4.9,2.31,6.71,1.61,1.82-.29,2.9-1.25,3.5-2.04,2.28-3.04,1.24-8.23-.08-14.81-.49-2.43-.99-4.93-1.34-7.41,1.21-7.6,6.48-7.95,14.92-7.85h.22c4.85,0,9.37-1.74,12.73-4.92,1.63-1.54,3.96-2.78,6.21-3.98,4.52-2.39,10.69-5.68,8.19-12.42-1.68-5.28-6.03-6.18-9.21-6.84-3.2-.67-4.42-1.09-5.01-3.05-.93-8.02,5.1-14.75,11.1-18.4,8.16-4.97,17.36-5.47,23.44-1.26,6.85,4.66,4.66,10.33.53,19.19-3.53,7.55-7.91,16.96,2.42,22.69.11.06.23.12.36.16,15.81,5.72,17.3,11.47,17.84,19.75-13.41,16.12-31.77,26.42-52.44,23.22Zm98.63-31.69l233.38,216.85-31.38-.83c-.69-.04-1.33.24-1.81.7-.48.47-.76,1.11-.76,1.78l-1.84,295.52h-67.24c.07-15.65,1.69-105.61,2.36-141.63.01-.67-.25-1.32-.72-1.8-.47-.48-1.11-.75-1.78-.75h-72.52c-1.38,0-2.49,1.11-2.5,2.48l-.99,141.7h-54.5l2.67-119.52,38.83.88c1.03.04,2.04-.64,2.4-1.64.37-1.01.06-2.14-.77-2.81-.89-.71-89.32-72.02-176.79-142.41-15.84-12.75-30.69-24.7-44.53-35.82l198.16,4.13,2.61,86.88c.04,1.35,1.15,2.43,2.5,2.43h0l21.94-.08h61.44c1.38,0,2.5-1.12,2.5-2.5v-88.66c0-1.38-1.12-2.5-2.5-2.5h-30.15c-.67,0-1.31.27-1.78.74-.47.48-.73,1.12-.72,1.79l.97,73.09h-26.29l-.97-73.16c-.01-1.34-1.1-2.43-2.44-2.46l-22.27-.47-.43-14.46c-.04-1.33-1.13-2.4-2.47-2.42l-8.73-.13-170.19-2.53,114.75-120.37s2.3-2.59,4.94-5.78l4.42-5.08c2.9-3.32,5.01-6.21,6.42-8.84,1.78-3.33,2.42-6.23,2.08-9.02-.46-3.77-2.67-7.23-7.21-11.09l31.9-32.21Zm80.55,217.4h25.12v83.66h-58.95l-19.52.07-2.53-84.19,19.6.41.96,73.2c.02,1.37,1.14,2.47,2.5,2.47h31.29c.67,0,1.31-.27,1.78-.74.47-.48.73-1.12.72-1.79l-.97-73.09Zm-115.98-181.63c3.66,3.05,5.48,5.63,5.78,8.13.42,3.41-1.84,7.72-7.3,13.98l-4.47,5.12c-2.6,3.14-4.81,5.64-4.81,5.64l-118.64,124.44c-.69.72-.88,1.78-.5,2.69.39.92,1.28,1.52,2.27,1.54l182.26,2.7.35,11.82-204.38-4.26c-3.94-3.17-7.79-6.26-11.55-9.29l160.99-162.51Zm-164.53,166.08c2.28,1.84,4.58,3.68,6.9,5.55l-12.13-.26,5.23-5.29Zm120.93,112.4c-.92-.73-2.23-.72-3.15.03l-67.52,55.34-298.1-269.52c-.09-.44-.3-.87-.64-1.22-.95-.99-2.53-1.03-3.53-.07l-269.71,258.03c-.73.7-.97,1.77-.6,2.71.36.94,1.26,1.58,2.27,1.6l52.32,1.31-.15,175.78h-7.17v-163.94c0-1.37-1.11-2.49-2.48-2.5l-66.5-.54,298.7-291.97,114.52,18.87,15.94,11.95c.1.08.21.15.32.21,3.24,2.22,49.6,39.34,110.63,88.38l-8.97,9.06c-.7.71-.91,1.77-.54,2.7.38.92,1.27,1.54,2.27,1.56l24.44.51c71.83,57.74,159.1,128.05,220.65,177.68l-31.48-.71.19-8.89c.02-.78-.33-1.52-.94-2.01l-80.77-64.35Zm901.08,75.77h-32.12c-1.38,0-2.5,1.12-2.5,2.5v170.5h-15.99l.98-180.9,22.41.9c1.11.06,2.1-.64,2.46-1.68.36-1.05,0-2.2-.9-2.85l-15.77-11.39c1.32-1.5,3.33-3.8,5.93-6.8l35.5,29.72Zm11.19-425.91c1.3,4.8-1.77,8.18-5.18,9.29-3.06,1-7.28.48-9.11-4.3-3.38-8.84-3.32-20.79-1.24-33.41,7.83,10.25,13.25,20.05,15.53,28.42Zm300.71,423.7l256.98-300.41,252.51,276.86c.28.3.63.54,1.03.67l153,53.3c4.08,1.42,16.06,11.75,22.39,17.79h-20.93c-.67,0-1.32.27-1.79.75-.47.48-.72,1.13-.71,1.81l2.94,131.44h-662l-4.58-181.45c.45-.14.85-.4,1.16-.76Zm-6.75-22.74l.47,18.62-256.99-.02c-.67,0-1.3.26-1.77.73-.47.47-.73,1.1-.73,1.77v168.41c0,1.39,1.12,2.5,2.5,2.5h245.21l.17,12.94h-255.9l-2.72-183.59,18.27-21.36h251.49Zm-211.88-54l-41.91,49h-13.28l43.21-51.63,11.98,2.63Zm1426.28,265.71l-408.11.24,6.26-278.44c.02-.68-.24-1.33-.71-1.81-.47-.48-1.12-.75-1.79-.75h-32.02l201.76-244.65c84.45,95.64,207.39,236.62,222.95,259.01-9.14.31-33.27.08-36.28-.25-.23-.07-.5-.14-.74-.11-1.36.01-2.47,1.1-2.49,2.46l-4,252c-.01.67.25,1.32.72,1.79.47.48,1.11.75,1.78.75h52.67v9.76Z"/>
      <path d="m1369,745.96v69h69v-69h-69Zm64,64h-59v-59h59v59Z"/>
      <path d="m1606,745.96v69h69v-69h-69Zm64,64h-59v-59h59v59Z"/>
    </g>
  </g>
</svg>