<?xml version="1.0" encoding="UTF-8"?>
<svg id="Layer_2" data-name="Layer 2" xmlns="http://www.w3.org/2000/svg" viewBox="0 0 779.15 779.15">
  <defs>
    <style>
      .cls-1 {
        fill: #fff;
      }

      .cls-2 {
        fill: #00cbad;
      }
    </style>
  </defs>
  <g id="Layer_1-2" data-name="Layer 1">
    <g id="blue_circle" data-name="blue circle">
      <circle class="cls-2" cx="389.57" cy="389.57" r="389.57" transform="translate(-161.37 389.57) rotate(-45)"/>
      <g>
        <path class="cls-1" d="m569.98,253.25l-44.09-44.09c-15.49-15.49-40.68-15.49-56.17,0l-36.39,36.39,100.26,100.26,36.39-36.39c7.5-7.5,11.63-17.48,11.63-28.08s-4.13-20.58-11.63-28.09Z"/>
        <path class="cls-1" d="m302.39,381.07l-11.89,89.91c-.64,4.85,1.01,9.72,4.47,13.18,2.97,2.97,6.98,4.61,11.12,4.61.69,0,1.37-.04,2.06-.14l89.91-11.89c3.43-.45,6.61-2.02,9.06-4.47l104.23-104.23-100.26-100.26-104.23,104.23c-2.45,2.45-4.02,5.63-4.47,9.06Z"/>
        <path class="cls-1" d="m546.3,430.87c-8.68,0-15.73,7.04-15.73,15.72v71.29c0,17.79-14.47,32.26-32.26,32.26h-237.06c-17.79,0-32.26-14.47-32.26-32.26v-237.05c0-17.79,14.47-32.26,32.26-32.26h71.29c8.68,0,15.73-7.04,15.73-15.72s-7.04-15.72-15.73-15.72h-71.29c-35.13,0-63.71,28.58-63.71,63.71v237.05c0,35.13,28.58,63.71,63.71,63.71h237.06c35.13,0,63.71-28.58,63.71-63.71v-71.29c0-8.68-7.04-15.72-15.73-15.72Z"/>
      </g>
    </g>
  </g>
</svg>